<svg width="1376" height="642" viewBox="0 0 1376 642" fill="none" xmlns="http://www.w3.org/2000/svg">
<path d="M234.364 396.146H453.575C474.828 394.038 516.914 379.073 515.228 336.074C513.541 293.074 481.152 278.46 465.167 276.528C455.05 234.794 422.66 236.304 407.73 242.276C385.387 207.709 352.049 194.5 338.173 192.216C329.566 189.054 303.183 187.368 266.508 205.917C229.832 224.465 220.312 269.151 220.136 289.175C192.313 293.39 180.79 319.387 178.507 331.858C174.713 384.131 214.164 396.497 234.364 396.146Z" fill="#02D35F"/>
<path d="M443.625 475.777L544.089 483.177V568.987C544.089 568.987 356.373 753.868 82.8472 534.97H176.056L186.386 450.649C186.386 450.649 292.76 558.609 443.625 475.777Z" fill="#02D35F"/>
<path d="M103.411 79.3496C103.411 79.3496 -100.737 269.42 66.4155 512.773L159.721 521.661L168.609 431.431C168.609 431.431 82.8472 290.896 193.641 179.958L94.2822 172.271L103.411 79.3496Z" fill="#02D35F"/>
<path d="M125.608 66.0408C125.608 66.0408 380.252 -98.1324 573.829 100.057L488.019 94.1477L479.131 190.24C479.131 190.24 381.501 71.9505 218.817 163.67L119.698 159.25L125.608 66.0408Z" fill="#02D35F"/>
<path d="M501.328 213.974L507.238 114.855L597.468 123.744L869.649 426.962H776.488L767.599 511.283L501.328 213.974Z" fill="#02D35F"/>
<path d="M443.625 475.777L544.089 483.177V568.987C544.089 568.987 356.373 753.868 82.8472 534.97H176.056L186.386 450.649C186.386 450.649 292.76 558.609 443.625 475.777Z" fill="#0D2C40"/>
<path d="M103.411 79.3496C103.411 79.3496 -100.737 269.42 66.4155 512.773L159.721 521.661L168.609 431.431C168.609 431.431 82.8472 290.896 193.641 179.958L94.2822 172.271L103.411 79.3496Z" fill="#0D2C40"/>
<path d="M125.608 66.0408C125.608 66.0408 380.252 -98.1324 573.829 100.057L488.019 94.1477L479.131 190.24C479.131 190.24 381.501 71.9505 218.817 163.67L119.698 159.25L125.608 66.0408Z" fill="#0D2C40"/>
<path d="M501.328 213.974L507.238 114.855L597.468 123.744L869.649 426.962H776.488L767.599 511.283L501.328 213.974Z" fill="#0D2C40"/>
<path d="M468.801 459.537L813.435 79.3491L905.155 88.2376L899.245 181.447L560.521 558.608L561.962 460.979L468.801 459.537Z" fill="#02D35F"/>
<path d="M826.744 65.6561L922.163 73.4396L915.533 164.439C915.533 164.439 1056.4 74.5446 1159.61 169.964L1260.5 174.384L1269.58 85.7874C1269.58 85.7874 1111.9 -91.9829 826.744 65.6561Z" fill="#02D35F"/>
<path d="M1174.02 184.378L1274.92 190.287L1282.7 101.162C1282.7 101.162 1503.47 347.11 1264.92 558.608L1167.34 551.834L1176.23 450.937C1176.23 450.937 1308.26 303.1 1174.02 184.378Z" fill="#02D35F"/>
<path d="M893.335 450.649L791.43 441.761L785.712 531.655C785.712 531.655 966.557 740.223 1239.46 573.791L1146.25 566.248L1155.14 469.724C1155.14 469.724 1036.42 564.903 893.335 450.649Z" fill="#02D35F"/>
<g filter="url(#filter0_d_424_204)">
<path d="M686.116 419.813L773.445 319.846" stroke="#02D35F"/>
</g>
<path d="M883.577 360.138V308.078H903.658C922.25 308.078 933.034 318.788 933.034 333.811V333.959C933.034 348.982 922.101 360.138 903.36 360.138H883.577ZM898.005 347.346H903.881C912.508 347.346 918.234 342.586 918.234 334.182V334.034C918.234 325.704 912.508 320.87 903.881 320.87H898.005V347.346Z" fill="#0D2C40"/>
<path d="M959.558 361.105C946.915 361.105 937.991 352.701 937.991 340.206V340.058C937.991 328.307 946.395 319.011 958.294 319.011C972.201 319.011 978.597 329.2 978.597 341.025C978.597 341.917 978.597 342.958 978.523 343.925H951.601C952.716 348.313 955.914 350.544 960.302 350.544C963.649 350.544 966.326 349.28 969.226 346.454L977.035 352.924C973.168 357.832 967.59 361.105 959.558 361.105ZM951.377 336.711H965.359C964.839 332.249 962.236 329.423 958.368 329.423C954.65 329.423 952.121 332.323 951.377 336.711Z" fill="#0D2C40"/>
<path d="M995.783 360.435L979.719 319.903H994.593L1002.33 343.404L1010.06 319.903H1024.71L1008.65 360.435H995.783Z" fill="#0D2C40"/>
<path d="M1056.25 361.179C1040.18 361.179 1028.28 349.205 1028.28 334.257V334.108C1028.28 319.16 1040.33 307.037 1056.39 307.037C1072.46 307.037 1084.36 319.011 1084.36 333.959V334.108C1084.36 349.057 1072.31 361.179 1056.25 361.179ZM1056.39 348.164C1064.35 348.164 1069.63 341.768 1069.63 334.257V334.108C1069.63 326.597 1064.2 320.052 1056.25 320.052C1048.36 320.052 1043.08 326.448 1043.08 333.959V334.108C1043.08 341.619 1048.51 348.164 1056.39 348.164Z" fill="#0D2C40"/>
<path d="M1091.06 372.037V319.903H1105.19V325.258C1107.94 321.911 1111.36 319.011 1117.38 319.011C1126.98 319.011 1135.23 326.968 1135.23 339.835V339.983C1135.23 353.073 1126.98 361.03 1117.46 361.03C1111.36 361.03 1107.79 358.279 1105.19 355.229V372.037H1091.06ZM1113.07 349.205C1117.68 349.205 1121.32 345.487 1121.32 340.058V339.909C1121.32 334.629 1117.68 330.836 1113.07 330.836C1108.53 330.836 1104.89 334.629 1104.89 339.909V340.058C1104.89 345.412 1108.53 349.205 1113.07 349.205Z" fill="#0D2C40"/>
<path d="M1157.3 361.03C1150.54 361.03 1143.84 359.097 1138.26 355.081L1143.55 346.528C1148.16 349.577 1153.21 351.139 1157.38 351.139C1159.83 351.139 1160.95 350.395 1160.95 348.982V348.833C1160.95 347.272 1158.72 346.602 1154.48 345.412C1146.52 343.33 1140.2 340.653 1140.2 332.546V332.398C1140.2 323.845 1147.04 319.085 1156.34 319.085C1162.21 319.085 1168.31 320.796 1172.92 323.771L1168.09 332.695C1163.92 330.39 1159.39 328.976 1156.19 328.976C1154.03 328.976 1152.92 329.795 1152.92 330.91V331.059C1152.92 332.621 1155.22 333.364 1159.46 334.629C1167.42 336.86 1173.74 339.611 1173.74 347.42V347.569C1173.74 356.419 1167.12 361.03 1157.3 361.03Z" fill="#0D2C40"/>
<path d="M264.333 357.037C250.893 357.037 240.073 346.755 240.073 332.709V332.575C240.073 318.865 250.624 308.112 264.871 308.112C274.481 308.112 280.664 312.145 284.831 317.924L275.019 325.518C272.331 322.158 269.239 320.008 264.737 320.008C258.151 320.008 253.514 325.585 253.514 332.44V332.575C253.514 339.631 258.151 345.142 264.737 345.142C269.642 345.142 272.532 342.857 275.355 339.43L285.167 346.419C280.731 352.534 274.75 357.037 264.333 357.037Z" fill="#0D2C40"/>
<path d="M290.306 356.096V307.037H303.074V356.096H290.306Z" fill="#0D2C40"/>
<path d="M328.733 356.97C317.107 356.97 308.706 348.435 308.706 338.085V337.951C308.706 327.602 317.174 318.932 328.867 318.932C340.494 318.932 348.894 327.467 348.894 337.817V337.951C348.894 348.301 340.427 356.97 328.733 356.97ZM328.867 346.15C333.505 346.15 336.462 342.454 336.462 338.085V337.951C336.462 333.516 333.236 329.752 328.733 329.752C324.096 329.752 321.139 333.448 321.139 337.817V337.951C321.139 342.387 324.365 346.15 328.867 346.15Z" fill="#0D2C40"/>
<path d="M366.384 356.903C358.656 356.903 354.019 351.795 354.019 343.529V319.739H366.787V339.43C366.787 343.395 368.871 345.545 371.962 345.545C374.986 345.545 377.271 343.395 377.271 339.43V319.739H390.04V356.096H377.271V351.123C374.919 354.147 371.559 356.903 366.384 356.903Z" fill="#0D2C40"/>
<path d="M411.598 356.903C402.996 356.903 395.536 349.712 395.536 338.085V337.951C395.536 326.123 402.929 318.932 411.531 318.932C417.042 318.932 420.267 321.419 422.687 324.174V307.037H435.455V356.096H422.687V351.258C420.2 354.282 417.042 356.903 411.598 356.903ZM415.496 346.217C419.595 346.217 422.888 342.79 422.888 337.951V337.817C422.888 333.045 419.595 329.618 415.496 329.618C411.396 329.618 408.036 332.978 408.036 337.817V337.951C408.036 342.79 411.396 346.217 415.496 346.217Z" fill="#0D2C40"/>
<defs>
<filter id="filter0_d_424_204" x="679.74" y="319.517" width="100.081" height="114.626" filterUnits="userSpaceOnUse" color-interpolation-filters="sRGB">
<feFlood flood-opacity="0" result="BackgroundImageFix"/>
<feColorMatrix in="SourceAlpha" type="matrix" values="0 0 0 0 0 0 0 0 0 0 0 0 0 0 0 0 0 0 127 0" result="hardAlpha"/>
<feOffset dy="8"/>
<feGaussianBlur stdDeviation="3"/>
<feComposite in2="hardAlpha" operator="out"/>
<feColorMatrix type="matrix" values="0 0 0 0 0.0195511 0 0 0 0 0.456667 0 0 0 0 0.214057 0 0 0 0.69 0"/>
<feBlend mode="normal" in2="BackgroundImageFix" result="effect1_dropShadow_424_204"/>
<feBlend mode="normal" in="SourceGraphic" in2="effect1_dropShadow_424_204" result="shape"/>
</filter>
</defs>
</svg>
